<mxfile host="Electron" modified="2024-01-31T17:10:22.519Z" agent="Mozilla/5.0 (Windows NT 10.0; Win64; x64) AppleWebKit/537.36 (KHTML, like Gecko) draw.io/22.1.16 Chrome/120.0.6099.109 Electron/28.1.0 Safari/537.36" etag="NeHA-jykJTO39Ob4vnad" version="22.1.16" type="device">
  <diagram name="Страница — 1" id="x3ASPkyUIjZy-x1FBZUD">
    <mxGraphModel dx="5185" dy="1798" grid="1" gridSize="10" guides="1" tooltips="1" connect="1" arrows="1" fold="1" page="1" pageScale="1" pageWidth="827" pageHeight="1169" math="0" shadow="0">
      <root>
        <mxCell id="0" />
        <mxCell id="1" parent="0" />
        <mxCell id="8_T74Xt0qUnq9rnjdWRC-1" value="Хранилище комнат" style="swimlane;whiteSpace=wrap;html=1;fillColor=#d5e8d4;strokeColor=#82b366;" vertex="1" parent="1">
          <mxGeometry x="-3990" y="-1110" width="640" height="560" as="geometry" />
        </mxCell>
        <mxCell id="8_T74Xt0qUnq9rnjdWRC-2" value="Координаты платформ" style="rounded=0;whiteSpace=wrap;html=1;" vertex="1" parent="8_T74Xt0qUnq9rnjdWRC-1">
          <mxGeometry x="9.980000000000018" y="120" width="120" height="60" as="geometry" />
        </mxCell>
        <mxCell id="8_T74Xt0qUnq9rnjdWRC-3" value="Координаты подъемников" style="rounded=0;whiteSpace=wrap;html=1;" vertex="1" parent="8_T74Xt0qUnq9rnjdWRC-1">
          <mxGeometry x="9.980000000000018" y="200" width="120" height="60" as="geometry" />
        </mxCell>
        <mxCell id="8_T74Xt0qUnq9rnjdWRC-4" value="переменная биома" style="rounded=0;whiteSpace=wrap;html=1;" vertex="1" parent="8_T74Xt0qUnq9rnjdWRC-1">
          <mxGeometry x="170" y="40" width="120" height="60" as="geometry" />
        </mxCell>
        <mxCell id="8_T74Xt0qUnq9rnjdWRC-5" value="Двузначный id комнаты" style="rounded=0;whiteSpace=wrap;html=1;" vertex="1" parent="8_T74Xt0qUnq9rnjdWRC-1">
          <mxGeometry x="9.980000000000018" y="40" width="120" height="60" as="geometry" />
        </mxCell>
        <mxCell id="8_T74Xt0qUnq9rnjdWRC-6" value="Таблица с объектами интеракций" style="rounded=0;whiteSpace=wrap;html=1;" vertex="1" parent="8_T74Xt0qUnq9rnjdWRC-1">
          <mxGeometry x="170" y="120" width="120" height="60" as="geometry" />
        </mxCell>
        <mxCell id="8_T74Xt0qUnq9rnjdWRC-7" value="Таблица с объектами интеракций" style="shape=parallelogram;perimeter=parallelogramPerimeter;whiteSpace=wrap;html=1;fixedSize=1;" vertex="1" parent="8_T74Xt0qUnq9rnjdWRC-1">
          <mxGeometry x="260" y="210" width="120" height="60" as="geometry" />
        </mxCell>
        <mxCell id="8_T74Xt0qUnq9rnjdWRC-8" value="coordinates --Координаты в формате Vector2" style="rounded=0;whiteSpace=wrap;html=1;" vertex="1" parent="8_T74Xt0qUnq9rnjdWRC-1">
          <mxGeometry x="310" y="290" width="120" height="60" as="geometry" />
        </mxCell>
        <mxCell id="8_T74Xt0qUnq9rnjdWRC-9" style="edgeStyle=orthogonalEdgeStyle;rounded=0;orthogonalLoop=1;jettySize=auto;html=1;exitX=0.25;exitY=1;exitDx=0;exitDy=0;entryX=0;entryY=0.5;entryDx=0;entryDy=0;" edge="1" parent="8_T74Xt0qUnq9rnjdWRC-1" source="8_T74Xt0qUnq9rnjdWRC-7" target="8_T74Xt0qUnq9rnjdWRC-8">
          <mxGeometry relative="1" as="geometry" />
        </mxCell>
        <mxCell id="8_T74Xt0qUnq9rnjdWRC-10" value="Type" style="rounded=0;whiteSpace=wrap;html=1;" vertex="1" parent="8_T74Xt0qUnq9rnjdWRC-1">
          <mxGeometry x="310" y="370" width="120" height="60" as="geometry" />
        </mxCell>
        <mxCell id="8_T74Xt0qUnq9rnjdWRC-11" style="edgeStyle=orthogonalEdgeStyle;rounded=0;orthogonalLoop=1;jettySize=auto;html=1;exitX=0.25;exitY=1;exitDx=0;exitDy=0;entryX=0;entryY=0.5;entryDx=0;entryDy=0;" edge="1" parent="8_T74Xt0qUnq9rnjdWRC-1" source="8_T74Xt0qUnq9rnjdWRC-7" target="8_T74Xt0qUnq9rnjdWRC-10">
          <mxGeometry relative="1" as="geometry" />
        </mxCell>
        <mxCell id="8_T74Xt0qUnq9rnjdWRC-12" value="subtype" style="rounded=0;whiteSpace=wrap;html=1;" vertex="1" parent="8_T74Xt0qUnq9rnjdWRC-1">
          <mxGeometry x="310" y="460" width="120" height="60" as="geometry" />
        </mxCell>
        <mxCell id="8_T74Xt0qUnq9rnjdWRC-13" style="edgeStyle=orthogonalEdgeStyle;rounded=0;orthogonalLoop=1;jettySize=auto;html=1;exitX=0.25;exitY=1;exitDx=0;exitDy=0;entryX=0;entryY=0.5;entryDx=0;entryDy=0;" edge="1" parent="8_T74Xt0qUnq9rnjdWRC-1" source="8_T74Xt0qUnq9rnjdWRC-7" target="8_T74Xt0qUnq9rnjdWRC-12">
          <mxGeometry relative="1" as="geometry" />
        </mxCell>
        <mxCell id="8_T74Xt0qUnq9rnjdWRC-14" value="Spawner" style="ellipse;whiteSpace=wrap;html=1;aspect=fixed;" vertex="1" parent="8_T74Xt0qUnq9rnjdWRC-1">
          <mxGeometry x="480" y="320" width="80" height="80" as="geometry" />
        </mxCell>
        <mxCell id="8_T74Xt0qUnq9rnjdWRC-15" style="edgeStyle=orthogonalEdgeStyle;rounded=0;orthogonalLoop=1;jettySize=auto;html=1;exitX=1;exitY=0.5;exitDx=0;exitDy=0;" edge="1" parent="8_T74Xt0qUnq9rnjdWRC-1" source="8_T74Xt0qUnq9rnjdWRC-10" target="8_T74Xt0qUnq9rnjdWRC-14">
          <mxGeometry relative="1" as="geometry">
            <mxPoint x="510" y="360" as="targetPoint" />
          </mxGeometry>
        </mxCell>
        <mxCell id="8_T74Xt0qUnq9rnjdWRC-16" value="Trap" style="ellipse;whiteSpace=wrap;html=1;aspect=fixed;" vertex="1" parent="8_T74Xt0qUnq9rnjdWRC-1">
          <mxGeometry x="480" y="400" width="80" height="80" as="geometry" />
        </mxCell>
        <mxCell id="8_T74Xt0qUnq9rnjdWRC-17" style="edgeStyle=orthogonalEdgeStyle;rounded=0;orthogonalLoop=1;jettySize=auto;html=1;exitX=1;exitY=0.5;exitDx=0;exitDy=0;entryX=0;entryY=0.5;entryDx=0;entryDy=0;" edge="1" parent="8_T74Xt0qUnq9rnjdWRC-1" source="8_T74Xt0qUnq9rnjdWRC-10" target="8_T74Xt0qUnq9rnjdWRC-16">
          <mxGeometry relative="1" as="geometry" />
        </mxCell>
        <mxCell id="8_T74Xt0qUnq9rnjdWRC-18" value="Obstacle" style="ellipse;whiteSpace=wrap;html=1;aspect=fixed;" vertex="1" parent="8_T74Xt0qUnq9rnjdWRC-1">
          <mxGeometry x="480" y="240" width="80" height="80" as="geometry" />
        </mxCell>
        <mxCell id="8_T74Xt0qUnq9rnjdWRC-19" style="edgeStyle=orthogonalEdgeStyle;rounded=0;orthogonalLoop=1;jettySize=auto;html=1;exitX=1;exitY=0.5;exitDx=0;exitDy=0;entryX=0;entryY=0.5;entryDx=0;entryDy=0;" edge="1" parent="8_T74Xt0qUnq9rnjdWRC-1" source="8_T74Xt0qUnq9rnjdWRC-10" target="8_T74Xt0qUnq9rnjdWRC-18">
          <mxGeometry relative="1" as="geometry" />
        </mxCell>
      </root>
    </mxGraphModel>
  </diagram>
</mxfile>
